#!OML:ASF I:\golf\golf\golf 2\Subject 1\2002-09-07\Subject1.ASF
:FULLY-SPECIFIED
:DEGREES
401
root -6.05647 18.1279 -2.09375 -173.227 26.0049 -176.988
lowerback -3.16026 10.0929 13.9047
upperback -3.63662 15.8934 11.4977
thorax -2.16412 8.67518 4.92104
lowerneck -7.42822 -18.8405 -1.67647
upperneck 19.0656 -29.7725 2.34716
head 7.74125 -14.8504 -1.81031
rclavicle -1.98785e-014 -1.01778e-013
rhumerus 56.5966 43.2797 -70.2481
rradius 40.0186
rwrist -1.35608
rhand -0.407803 6.11198
rfingers 7.12502
rthumb 25.1997 -22.2443
lclavicle -1.98785e-014 -1.01778e-013
lhumerus 23.9066 -16.2128 83.0444
lradius 51.9723
lwrist 49.7047
lhand -24.0481 36.7057
lfingers 7.12502
lthumb -177.569 -113.328
rfemur 8.48231 -4.19108 11.0144
rtibia 27.2813
rfoot 9.32217 -32.0453
rtoes 27.4992
lfemur -18.9163 -9.9497 -16.5199
ltibia 19.4592
lfoot 4.31178 -35.75
ltoes 23.7558
402
root -6.04493 18.1255 -2.14423 -173.079 24.7524 -177.077
lowerback -3.17953 10.3786 14.1915
upperback -3.91984 16.301 11.1082
thorax -2.27475 8.84486 4.38395
lowerneck -7.55561 -19.1574 -1.46614
upperneck 18.0013 -29.9119 2.81041
head 7.45317 -14.8421 -1.64924
rclavicle 7.95139e-014 8.5875e-014
rhumerus 59.854 43.1271 -68.7836
rradius 41.0072
rwrist 0.613853
rhand -1.39627 7.408
rfingers 7.12502
rthumb 24.2523 -21.0782
lclavicle 7.95139e-014 8.5875e-014
lhumerus 25.7381 -14.372 82.2073
lradius 53.5275
lwrist 48.6986
lhand -25.2157 35.0239
lfingers 7.12502
lthumb -178.697 -115
rfemur 9.00402 -4.32777 11.2683
rtibia 26.7218
rfoot 9.35722 -32.4419
rtoes 29.4577
lfemur -19.3053 -10.8842 -16.5651
ltibia 19.7831
lfoot 4.00068 -36.2011
ltoes 23.2675
403
root -6.03243 18.1251 -2.19193 -172.841 23.4992 -177.118
lowerback -3.35058 10.7088 14.4892
upperback -4.17258 16.7029 10.6422
thorax -2.23145 9.00998 3.81692
lowerneck -7.77781 -19.4507 -1.1001
upperneck 16.9079 -30.0374 3.27848
head 7.15229 -14.8238 -1.50852
rclavicle -1.08139e-013 1.30403e-013
rhumerus 63.0054 42.6987 -67.5384
rradius 41.9634
rwrist 1.81743
rhand -2.12371 8.70634
rfingers 7.12502
rthumb 23.5547 -19.8712
lclavicle -1.08139e-013 1.30403e-013
lhumerus 27.8077 -12.5184 81.4689
lradius 55.0277
lwrist 47.4535
lhand -25.7858 34.0345
lfingers 7.12502
lthumb -179.247 -115.987
rfemur 9.42264 -4.35085 11.6588
rtibia 26.1578
rfoot 9.37756 -33.0712
rtoes 30.8993
lfemur -19.7626 -11.7234 -16.5297
ltibia 20.0854
lfoot 3.35498 -36.8096
ltoes 22.3942
404
root -6.01852 18.1264 -2.2384 -172.544 22.2246 -176.983
lowerback -2.99484 11.0227 14.9112
upperback -4.81941 17.3179 10.0969
thorax -2.84547 9.24583 2.93956
lowerneck -7.80647 -19.7031 -0.843566
upperneck 16.194 -30.2507 3.6785
head 6.95555 -14.8824 -1.39611
rclavicle 5.64548e-014 -1.78111e-013
rhumerus 65.2164 42.155 -67.0898
rradius 42.8028
rwrist 2.58426
rhand -2.75021 10.3997
rfingers 7.12502
rthumb 22.9537 -18.2538
lclavicle 5.64548e-014 -1.78111e-013
lhumerus 29.5287 -11.0438 80.8241
lradius 56.4719
lwrist 46.1617
lhand -26.4392 33.435
lfingers 7.12502
lthumb -179.878 -116.585
rfemur 9.81601 -4.40148 12.2581
rtibia 25.5753
rfoot 9.65006 -33.4986
rtoes 29.9338
lfemur -20.2014 -12.4234 -16.314
ltibia 20.3618
lfoot 4.0502 -37.1247
ltoes 24.1067
405
root -6.0024 18.126 -2.28661 -172.288 20.8301 -176.805
lowerback -2.84847 11.2953 15.3597
upperback -5.33921 17.8123 9.59903
thorax -3.20614 9.43513 2.17058
lowerneck -7.97314 -19.9694 -0.509122
upperneck 15.4558 -30.4158 3.9032
head 6.73252 -14.922 -1.34022
rclavicle 5.32743e-014 3.81667e-014
rhumerus 67.5249 41.569 -66.5355
rradius 43.6116
rwrist 3.02487
rhand -3.32173 11.8429
rfingers 7.12502
rthumb 22.4052 -16.8778
lclavicle 5.32743e-014 3.81667e-014
lhumerus 31.3822 -9.66137 80.3515
lradius 57.8956
lwrist 44.8318
lhand -27.5624 32.6873
lfingers 7.12502
lthumb -180.963 -117.335
rfemur 10.3167 -4.54137 12.9387
rtibia 24.9294
rfoot 10.0041 -33.9193
rtoes 28.9809
lfemur -20.6028 -13.101 -16.0658
ltibia 20.6421
lfoot 4.97138 -37.5726
ltoes 25.8653
406
root -5.98408 18.1242 -2.33555 -172.019 19.3855 -176.767
lowerback -2.84977 11.5484 15.5721
upperback -5.87918 18.2632 9.10324
thorax -3.5615 9.61391 1.54098
lowerneck -8.2045 -20.0692 -0.651839
upperneck 14.9969 -30.4666 4.49305
head 6.7368 -14.8891 -1.18578
rclavicle -1.1291e-013 -1.145e-013
rhumerus 69.583 40.9481 -66.2748
rradius 44.2277
rwrist 3.27982
rhand -3.71329 13.2275
rfingers 7.12502
rthumb 22.0293 -15.5378
lclavicle -1.1291e-013 -1.145e-013
lhumerus 33.277 -8.31365 80.1902
lradius 59.1347
lwrist 43.1687
lhand -28.4154 31.7891
lfingers 7.12502
lthumb -181.787 -118.239
rfemur 10.8168 -4.70541 13.5227
rtibia 24.2034
rfoot 9.64545 -34.9264
rtoes 31.1272
lfemur -21.1055 -13.7335 -15.9405
ltibia 20.95
lfoot 5.84296 -38.1667
ltoes 27.2994
407
root -5.96351 18.1205 -2.38785 -171.828 17.9472 -176.866
lowerback -2.87129 11.6814 15.6076
upperback -6.47728 18.5482 8.56634
thorax -4.00337 9.70542 0.931747
lowerneck -7.49679 -20.3495 -0.337588
upperneck 13.746 -30.5602 4.60554
head 6.19364 -14.9757 -1.00302
rclavicle -7.95139e-016 -7.95139e-014
rhumerus 71.5267 40.5128 -66.3049
rradius 44.7693
rwrist 3.28803
rhand -3.95524 14.7555
rfingers 7.12502
rthumb 21.7969 -14.0371
lclavicle -7.95139e-016 -7.95139e-014
lhumerus 35.0675 -6.85792 79.795
lradius 60.1919
lwrist 41.3834
lhand -28.7132 31.476
lfingers 7.12502
lthumb -182.075 -118.554
rfemur 11.4047 -4.95262 13.9396
rtibia 23.4023
rfoot 8.60267 -36.0208
rtoes 33.7475
lfemur -21.5762 -14.1653 -16.0013
ltibia 21.2883
lfoot 7.54154 -38.7057
ltoes 30.0796
408
root -5.9458 18.1142 -2.44505 -171.722 16.509 -177.051
lowerback -3.03173 11.6231 15.61
upperback -7.09597 18.5132 7.95719
thorax -4.39243 9.63118 0.278137
lowerneck -7.77698 -19.9932 0.363685
upperneck 13.5546 -30.014 4.61868
head 6.06813 -14.6869 -1.0205
rclavicle 9.30312e-014 -9.54166e-014
rhumerus 73.5206 40.4716 -66.5837
rradius 45.4794
rwrist 3.09404
rhand -4.23553 16.0694
rfingers 7.12502
rthumb 21.5278 -12.7542
lclavicle 9.30312e-014 -9.54166e-014
lhumerus 36.6535 -5.18843 78.7871
lradius 61.2096
lwrist 39.812
lhand -28.7767 31.4165
lfingers 7.12502
lthumb -182.136 -118.614
rfemur 12.1078 -5.37713 14.1761
rtibia 22.5231
rfoot 8.7491 -36.462
rtoes 33.6473
lfemur -21.9642 -14.4853 -16.2218
ltibia 21.6435
lfoot 9.44403 -39.3285
ltoes 32.6954
409
root -5.92909 18.1103 -2.50495 -171.511 15.0832 -177.063
lowerback -2.99223 12.1177 15.9388
upperback -7.51987 19.2455 7.33056
thorax -4.52017 9.94228 -0.476341
lowerneck -8.57604 -20.4927 -0.212948
upperneck 13.1578 -30.4649 4.97083
head 6.21017 -14.8343 -0.997008
rclavicle -5.88403e-014 -5.40694e-014
rhumerus 75.8171 39.1289 -65.1564
rradius 46.2829
rwrist 2.53477
rhand -4.59287 17.1559
rfingers 7.12502
rthumb 21.1845 -11.7066
lclavicle -5.88403e-014 -5.40694e-014
lhumerus 39.0848 -4.6679 78.979
lradius 62.1421
lwrist 38.3403
lhand -28.6524 31.0282
lfingers 7.12502
lthumb -182.016 -119.002
rfemur 12.7667 -5.74841 14.6082
rtibia 21.587
rfoot 9.9382 -36.7374
rtoes 32.1859
lfemur -22.3869 -14.8929 -16.2181
ltibia 21.9791
lfoot 10.8346 -39.9952
ltoes 34.3217
410
root -5.90839 18.1099 -2.5646 -171.256 13.6216 -176.868
lowerback -3.16706 12.3297 16.233
upperback -7.87854 19.5817 6.91094
thorax -4.57202 10.0873 -0.981172
lowerneck -8.58427 -20.824 -0.495774
upperneck 12.1661 -30.6315 5.30367
head 5.98713 -14.9055 -0.835334
rclavicle -1.06549e-013 2.13097e-013
rhumerus 78.5393 38.3306 -63.6348
rradius 47.1075
rwrist 1.84193
rhand -5.09581 17.9049
rfingers 7.12502
rthumb 20.7014 -11.0111
lclavicle -1.06549e-013 2.13097e-013
lhumerus 41.3015 -3.64986 78.8203
lradius 62.9786
lwrist 37.106
lhand -28.9299 30.3046
lfingers 7.12502
lthumb -182.284 -119.728
rfemur 13.4356 -5.9384 15.3895
rtibia 20.6137
rfoot 10.5201 -37.3506
rtoes 31.8124
lfemur -22.8241 -15.2735 -15.9478
ltibia 22.316
lfoot 11.8389 -40.8886
ltoes 35.3239
411
root -5.88811 18.1073 -2.62098 -171.045 12.1341 -176.824
lowerback -3.40686 12.4367 16.286
upperback -8.25251 19.7361 6.43481
thorax -4.65813 10.1427 -1.43954
lowerneck -8.718 -20.9579 -0.53141
upperneck 11.2647 -30.6194 5.71158
head 5.78787 -14.8808 -0.681286
rclavicle -5.08889e-014 -3.81667e-014
rhumerus 81.3278 37.6422 -62.2131
rradius 47.8947
rwrist 1.68056
rhand -6.1393 18.5881
rfingers 7.12502
rthumb 19.6984 -10.4338
lclavicle -5.08889e-014 -3.81667e-014
lhumerus 43.4378 -2.52424 78.2644
lradius 63.7141
lwrist 36.1155
lhand -29.4968 29.3766
lfingers 7.12502
lthumb -182.831 -120.662
rfemur 14.1243 -6.18938 16.0354
rtibia 19.5777
rfoot 10.8277 -37.936
rtoes 31.7258
lfemur -23.2964 -15.6459 -15.8186
ltibia 22.6989
lfoot 12.9911 -41.7867
ltoes 36.3905
412
root -5.8695 18.1013 -2.67749 -170.801 10.6986 -176.819
lowerback -3.70122 12.571 16.3319
upperback -8.62466 19.9065 5.9168
thorax -4.69468 10.208 -1.91413
lowerneck -9.03891 -21.0667 -0.562621
upperneck 10.4702 -30.5615 6.00149
head 5.63111 -14.8315 -0.581214
rclavicle 3.97569e-014 -8.42847e-014
rhumerus 83.9762 36.8648 -60.7578
rradius 48.7004
rwrist 2.12248
rhand -7.63512 19.4187
rfingers 7.12502
rthumb 18.2599 -9.74426
lclavicle 3.97569e-014 -8.42847e-014
lhumerus 45.5508 -1.41243 77.6394
lradius 64.4845
lwrist 35.354
lhand -29.8041 28.5314
lfingers 7.12502
lthumb -183.128 -121.512
rfemur 14.7867 -6.51333 16.5838
rtibia 18.463
rfoot 10.6476 -38.6113
rtoes 32.009
lfemur -23.8146 -16.0997 -15.7009
ltibia 23.1208
lfoot 14.2613 -42.4076
ltoes 37.8461
413
root -5.8499 18.0911 -2.7361 -170.578 9.31585 -176.636
lowerback -3.99151 12.677 16.5067
upperback -8.97861 20.0843 5.52703
thorax -4.73204 10.288 -2.31913
lowerneck -9.07932 -21.2443 -0.619812
upperneck 9.59474 -30.5007 5.91679
head 5.34766 -14.8195 -0.52488
rclavicle -1.11319e-014 -7.63333e-014
rhumerus 86.374 36.112 -59.3061
rradius 49.6399
rwrist 2.72693
rhand -9.04807 20.255
rfingers 7.12502
rthumb 16.9002 -9.02961
lclavicle -1.11319e-014 -7.63333e-014
lhumerus 47.4673 -0.339136 77.1628
lradius 65.3259
lwrist 34.6442
lhand -30.1489 27.7135
lfingers 7.12502
lthumb -183.461 -122.335
rfemur 15.5072 -6.77971 17.315
rtibia 17.3347
rfoot 10.2353 -39.384
rtoes 32.774
lfemur -24.256 -16.5171 -15.3983
ltibia 23.5355
lfoot 15.623 -42.9303
ltoes 39.4706
414
root -5.83261 18.0807 -2.79537 -170.385 7.92417 -176.424
lowerback -4.22077 12.7268 16.6667
upperback -9.41486 20.2432 5.14467
thorax -4.90808 10.3542 -2.74941
lowerneck -8.97945 -21.345 -0.782396
upperneck 8.95011 -30.4056 5.85233
head 5.13483 -14.7944 -0.456216
rclavicle -8.11041e-014 -6.36111e-014
rhumerus 88.3921 35.377 -58.0413
rradius 50.7438
rwrist 3.30303
rhand -10.606 21.208
rfingers 7.12502
rthumb 15.4 -8.19839
lclavicle -8.11041e-014 -6.36111e-014
lhumerus 49.1245 0.543647 76.5528
lradius 66.0536
lwrist 33.7824
lhand -30.6975 26.5965
lfingers 7.12502
lthumb -183.991 -123.461
rfemur 16.2569 -7.11316 18.0486
rtibia 16.1882
rfoot 11.5755 -39.742
rtoes 32.6951
lfemur -24.6521 -16.9181 -15.0756
ltibia 23.9475
lfoot 17.4496 -43.1913
ltoes 41.328
415
root -5.82007 18.075 -2.85491 -170.137 6.59483 -176.353
lowerback -4.54319 12.7727 16.7022
upperback -9.84363 20.3586 4.70951
thorax -5.04073 10.4046 -3.15446
lowerneck -9.04058 -21.3246 -1.00649
upperneck 8.49445 -30.206 5.90602
head 5.03188 -14.7013 -0.381132
rclavicle -9.78021e-014 2.54444e-014
rhumerus 90.3186 34.5956 -56.8393
rradius 51.9505
rwrist 3.82439
rhand -12.2226 22.0245
rfingers 7.12502
rthumb 13.8424 -7.49486
lclavicle -9.78021e-014 2.54444e-014
lhumerus 50.7457 1.48607 75.8801
lradius 66.5911
lwrist 32.7765
lhand -31.2395 25.0148
lfingers 7.12502
lthumb -184.514 -125.053
rfemur 16.9174 -7.44827 18.5871
rtibia 14.9765
rfoot 13.6959 -39.9032
rtoes 32.9122
lfemur -25.1393 -17.3405 -14.8946
ltibia 24.3617
lfoot 19.0757 -43.4087
ltoes 42.7501
